<?xml version="1.0" encoding="iso-8859-1"?>
<!-- Uploaded to: SVG Repo, www.svgrepo.com, Generator: SVG Repo Mixer Tools -->
<svg height="800px" width="800px" version="1.1" id="Layer_1" xmlns="http://www.w3.org/2000/svg" xmlns:xlink="http://www.w3.org/1999/xlink" 
	 viewBox="0 0 512.001 512.001" xml:space="preserve">
<path style="fill:#C9D0D7;" d="M151.475,360.465L151.475,360.465c-6.514-6.514-6.514-17.075,0-23.589l47.178-47.178
	c6.514-6.514,17.075-6.514,23.589,0l0,0c6.514,6.514,6.514,17.075,0,23.589l-47.178,47.178
	C168.55,366.978,157.99,366.978,151.475,360.465z"/>
<path style="fill:#B8C2C9;" d="M175.064,360.465l47.178-47.178c6.514-6.514,6.514-17.075,0-23.589l-70.768,70.768
	C157.99,366.978,168.55,366.978,175.064,360.465z"/>
<path style="fill:#6E6057;" d="M14.657,497.282L14.657,497.282c-19.542-19.542-19.542-51.226,0-70.768l70.768-70.768l70.768,70.768
	l-70.768,70.768C65.883,516.824,34.199,516.824,14.657,497.282z"/>
<path style="fill:#615349;" d="M14.657,497.282c19.542,19.543,51.226,19.541,70.768,0l70.768-70.768l-35.384-35.384L14.657,497.282z
	"/>
<path style="fill:#95673F;" d="M147.543,435.164l-70.768-70.768l51.11-51.11c6.514-6.514,17.075-6.514,23.589,0l47.178,47.178
	c6.514,6.514,6.514,17.075,0,23.589L147.543,435.164z"/>
<path style="fill:#875334;" d="M198.654,360.465l-23.589-23.589l-62.905,62.905l35.384,35.384l51.11-51.11
	C205.168,377.539,205.168,366.978,198.654,360.465z"/>
<path style="fill:#95673F;" d="M328.519,367.025c-101.167,0-183.482-82.31-183.482-183.482S227.351,0.062,328.519,0.062
	s183.482,82.31,183.482,183.482S429.685,367.025,328.519,367.025z"/>
<path style="fill:#875334;" d="M458.134,53.806L198.78,313.158c33.229,33.26,79.123,53.867,129.738,53.867
	c101.167,0,183.482-82.31,183.482-183.482C512.001,132.927,491.394,87.034,458.134,53.806z"/>
<path style="fill:#F2F8FF;" d="M328.519,33.422c-82.781,0-150.122,67.346-150.122,150.122s67.34,150.122,150.122,150.122
	S478.64,266.319,478.64,183.544S411.3,33.422,328.519,33.422z"/>
<path style="fill:#E8EDF2;" d="M434.557,77.382l-212.2,212.201c27.188,27.219,64.74,44.083,106.161,44.083
	c82.781,0,150.122-67.346,150.122-150.121C478.64,142.124,461.777,104.571,434.557,77.382z"/>
<path style="fill:#DBE9FD;" d="M411.92,144.623v105.641c0,9.23-7.451,16.68-16.68,16.68h-33.36v-55.601
	c0-18.348-15.012-33.36-33.36-33.36c-18.348,0-33.36,15.012-33.36,33.36v55.601h-33.36c-9.23,0-16.68-7.45-16.68-16.68V144.623
	H411.92z"/>
<path style="fill:#95673F;" d="M328.519,177.983c-18.348,0-33.36,15.012-33.36,33.36v55.601h33.36h33.36v-55.601
	C361.879,192.996,346.867,177.983,328.519,177.983z"/>
<path style="fill:#FF6243;" d="M340.312,71.67c-3.258-3.258-7.526-4.887-11.793-4.887c-4.267,0-8.536,1.629-11.793,4.887
	l-71.608,72.953h83.401h83.401L340.312,71.67z"/>
<path style="fill:#DBE9FD;" d="M328.519,144.623h-83.401v105.641c0,9.23,7.45,16.68,16.68,16.68h33.36v-55.601
	c0-18.348,15.012-33.36,33.36-33.36c18.348,0,33.36,15.012,33.36,33.36v55.601h33.36c9.23,0,16.68-7.45,16.68-16.68V144.623H328.519
	z"/>
<path style="fill:#FF3501;" d="M411.92,144.623L340.312,71.67c-3.258-3.258-7.526-4.887-11.793-4.887v77.841H411.92z"/>
<path style="fill:#C5DCFD;" d="M328.519,177.983c18.348,0,33.36,15.012,33.36,33.36v55.601h33.36c9.23,0,16.68-7.45,16.68-16.68
	V144.623h-83.401V177.983z"/>
<path style="fill:#875334;" d="M361.879,211.344c0-18.348-15.012-33.36-33.36-33.36v88.961h33.36V211.344z"/>
</svg>